HIERARCHY
ROOT Hips
{
	OFFSET 0.000000 103.266502 0.000000
	CHANNELS 6 Xposition Yposition Zposition Xrotation Yrotation Zrotation 
	JOINT Spine
	{
		OFFSET -0.002400 12.777504 0.315300
		CHANNELS 3 Xrotation Yrotation Zrotation
		JOINT Spine1
		{
			OFFSET -0.002067 5.816869 0.032633
			CHANNELS 3 Xrotation Yrotation Zrotation
			JOINT Spine1_split
			{
				OFFSET -0.002067 5.816869 0.032633
				CHANNELS 3 Xrotation Yrotation Zrotation
				JOINT Spine2
				{
					OFFSET -0.002067 5.816869 0.032633
					CHANNELS 3 Xrotation Yrotation Zrotation
					JOINT Neck
					{
						OFFSET -0.003700 21.199493 -0.826900
						CHANNELS 3 Xrotation Yrotation Zrotation
						JOINT Head
						{
							OFFSET 0.000000 20.442200 4.834800
							CHANNELS 3 Xrotation Yrotation Zrotation
							JOINT HeadTop_End
							{
								OFFSET 0.000000 34.668396 4.968400
								CHANNELS 3 Xrotation Yrotation Zrotation
								End Site
								{
									OFFSET 0.000000 0.000000 0.000000
								}
							}
						}
					}
					JOINT LeftShoulder
					{
						OFFSET 3.288150 8.794197 -1.372250
						CHANNELS 3 Xrotation Yrotation Zrotation
						JOINT LeftShoulder_split
						{
							OFFSET 3.288150 8.794197 -1.372250
							CHANNELS 3 Xrotation Yrotation Zrotation
							JOINT LeftArm
							{
								OFFSET 11.953299 -2.279007 -0.146200
								CHANNELS 3 Xrotation Yrotation Zrotation
								JOINT LeftForeArm
								{
									OFFSET 18.448900 0.000000 0.000000
									CHANNELS 3 Xrotation Yrotation Zrotation
									JOINT LeftHand
									{
										OFFSET 29.527798 0.000000 0.000000
										CHANNELS 3 Xrotation Yrotation Zrotation
										JOINT LeftHandThumb1
										{
											OFFSET 10.739754 -2.369614 9.225399
											CHANNELS 3 Xrotation Yrotation Zrotation
											JOINT LeftHandThumb2
											{
												OFFSET 4.926170 -2.844131 2.844125
												CHANNELS 3 Xrotation Yrotation Zrotation
												JOINT LeftHandThumb3
												{
													OFFSET 4.614891 -2.664413 2.664409
													CHANNELS 3 Xrotation Yrotation Zrotation
													JOINT LeftHandThumb4
													{
														OFFSET 4.432465 -2.559082 2.559083
														CHANNELS 3 Xrotation Yrotation Zrotation
														End Site
														{
															OFFSET 0.000000 0.000000 0.000000
														}
													}
												}
											}
										}
										JOINT LeftHandIndex1
										{
											OFFSET 26.467674 0.187653 6.405298
											CHANNELS 3 Xrotation Yrotation Zrotation
											JOINT LeftHandIndex2
											{
												OFFSET 8.792900 0.000000 0.000000
												CHANNELS 3 Xrotation Yrotation Zrotation
												JOINT LeftHandIndex3
												{
													OFFSET 10.075203 0.000000 0.000000
													CHANNELS 3 Xrotation Yrotation Zrotation
													End Site
													{
														OFFSET 0.000000 0.000000 0.000000
													}
												}
											}
										}
										JOINT LeftHandMiddle1
										{
											OFFSET 25.764404 0.000000 0.000000
											CHANNELS 3 Xrotation Yrotation Zrotation
											JOINT LeftHandMiddle2
											{
												OFFSET 9.393974 0.000000 0.000000
												CHANNELS 3 Xrotation Yrotation Zrotation
												JOINT LeftHandMiddle3
												{
													OFFSET 10.771950 0.000000 0.000000
													CHANNELS 3 Xrotation Yrotation Zrotation
													End Site
													{
														OFFSET 0.000000 0.000000 0.000000
													}
												}
											}
										}
										JOINT LeftHandRing1
										{
											OFFSET 24.660927 0.144547 -6.225808
											CHANNELS 3 Xrotation Yrotation Zrotation
											JOINT LeftHandRing2
											{
												OFFSET 9.393799 0.000000 0.000000
												CHANNELS 3 Xrotation Yrotation Zrotation
												JOINT LeftHandRing3
												{
													OFFSET 9.928497 0.000000 0.000000
													CHANNELS 3 Xrotation Yrotation Zrotation
													End Site
													{
														OFFSET 0.000000 0.000000 0.000000
													}
												}
											}
										}
										JOINT LeftHandPinky1
										{
											OFFSET 23.655350 0.125290 -12.815412
											CHANNELS 3 Xrotation Yrotation Zrotation
											JOINT LeftHandPinky2
											{
												OFFSET 8.425102 0.000000 0.000000
												CHANNELS 3 Xrotation Yrotation Zrotation
												JOINT LeftHandPinky3
												{
													OFFSET 8.147003 0.000000 0.000000
													CHANNELS 3 Xrotation Yrotation Zrotation
													End Site
													{
														OFFSET 0.000000 0.000000 0.000000
													}
												}
											}
										}
									}
								}
							}
						}
					}
					JOINT RightShoulder
					{
						OFFSET -3.249400 8.794197 -1.372250
						CHANNELS 3 Xrotation Yrotation Zrotation
						JOINT RightShoulder_split
						{
							OFFSET -3.249400 8.794197 -1.372250
							CHANNELS 3 Xrotation Yrotation Zrotation
							JOINT RightArm
							{
								OFFSET -11.953299 -2.279007 -0.146200
								CHANNELS 3 Xrotation Yrotation Zrotation
								JOINT RightForeArm
								{
									OFFSET -18.448900 0.000000 0.000000
									CHANNELS 3 Xrotation Yrotation Zrotation
									JOINT RightHand
									{
										OFFSET -29.527802 0.000000 0.000000
										CHANNELS 3 Xrotation Yrotation Zrotation
										JOINT RightHandThumb1
										{
											OFFSET -10.739754 -2.369614 9.225399
											CHANNELS 3 Xrotation Yrotation Zrotation
											JOINT RightHandThumb2
											{
												OFFSET -4.926170 -2.844131 2.844125
												CHANNELS 3 Xrotation Yrotation Zrotation
												JOINT RightHandThumb3
												{
													OFFSET -4.614891 -2.664413 2.664409
													CHANNELS 3 Xrotation Yrotation Zrotation
													JOINT RightHandThumb4
													{
														OFFSET -4.432465 -2.559082 2.559083
														CHANNELS 3 Xrotation Yrotation Zrotation
														End Site
														{
															OFFSET 0.000000 0.000000 0.000000
														}
													}
												}
											}
										}
										JOINT RightHandIndex1
										{
											OFFSET -26.467674 0.187653 6.405298
											CHANNELS 3 Xrotation Yrotation Zrotation
											JOINT RightHandIndex2
											{
												OFFSET -8.792900 0.000000 0.000000
												CHANNELS 3 Xrotation Yrotation Zrotation
												JOINT RightHandIndex3
												{
													OFFSET -10.075203 0.000000 0.000000
													CHANNELS 3 Xrotation Yrotation Zrotation
													End Site
													{
														OFFSET 0.000000 0.000000 0.000000
													}
												}
											}
										}
										JOINT RightHandMiddle1
										{
											OFFSET -25.764404 0.000000 0.000000
											CHANNELS 3 Xrotation Yrotation Zrotation
											JOINT RightHandMiddle2
											{
												OFFSET -9.393974 0.000000 0.000000
												CHANNELS 3 Xrotation Yrotation Zrotation
												JOINT RightHandMiddle3
												{
													OFFSET -10.771950 0.000000 0.000000
													CHANNELS 3 Xrotation Yrotation Zrotation
													End Site
													{
														OFFSET 0.000000 0.000000 0.000000
													}
												}
											}
										}
										JOINT RightHandRing1
										{
											OFFSET -24.660927 0.144547 -6.225808
											CHANNELS 3 Xrotation Yrotation Zrotation
											JOINT RightHandRing2
											{
												OFFSET -9.393799 0.000000 0.000000
												CHANNELS 3 Xrotation Yrotation Zrotation
												JOINT RightHandRing3
												{
													OFFSET -9.928497 0.000000 0.000000
													CHANNELS 3 Xrotation Yrotation Zrotation
													End Site
													{
														OFFSET 0.000000 0.000000 0.000000
													}
												}
											}
										}
										JOINT RightHandPinky1
										{
											OFFSET -23.655350 0.125290 -12.815412
											CHANNELS 3 Xrotation Yrotation Zrotation
											JOINT RightHandPinky2
											{
												OFFSET -8.425102 0.000000 0.000000
												CHANNELS 3 Xrotation Yrotation Zrotation
												JOINT RightHandPinky3
												{
													OFFSET -8.147003 0.000000 0.000000
													CHANNELS 3 Xrotation Yrotation Zrotation
													End Site
													{
														OFFSET 0.000000 0.000000 0.000000
													}
												}
											}
										}
									}
								}
							}
						}
					}
				}
			}
		}
	}
	JOINT LeftUpLeg
	{
		OFFSET 11.394100 -6.187798 -0.413800
		CHANNELS 3 Xrotation Yrotation Zrotation
		JOINT LeftLeg
		{
			OFFSET 0.430247 -32.302673 3.732800
			CHANNELS 3 Xrotation Yrotation Zrotation
			JOINT LeftFoot
			{
				OFFSET -0.430247 -48.264931 -6.423300
				CHANNELS 3 Xrotation Yrotation Zrotation
				JOINT LeftToeBase
				{
					OFFSET 4.230900 -16.068199 23.438400
					CHANNELS 3 Xrotation Yrotation Zrotation
					JOINT LeftToe_End
					{
						OFFSET 4.510700 0.695400 19.974600
						CHANNELS 3 Xrotation Yrotation Zrotation
						End Site
						{
							OFFSET 0.000000 0.000000 0.000000
						}
					}
				}
			}
		}
	}
	JOINT RightUpLeg
	{
		OFFSET -11.333700 -6.187798 -0.413800
		CHANNELS 3 Xrotation Yrotation Zrotation
		JOINT RightLeg
		{
			OFFSET -0.430392 -32.302628 3.733000
			CHANNELS 3 Xrotation Yrotation Zrotation
			JOINT RightFoot
			{
				OFFSET 0.430392 -48.264973 -6.423500
				CHANNELS 3 Xrotation Yrotation Zrotation
				JOINT RightToeBase
				{
					OFFSET -4.230900 -16.068199 23.438400
					CHANNELS 3 Xrotation Yrotation Zrotation
					JOINT RightToe_End
					{
						OFFSET -4.510700 0.695400 19.974600
						CHANNELS 3 Xrotation Yrotation Zrotation
						End Site
						{
							OFFSET 0.000000 0.000000 0.000000
						}
					}
				}
			}
		}
	}
}
MOTION
Frames: 5
Frame Time: 0.016667
0.056635 101.479836 0.403201 -5.480041 -12.065932 -1.321563 12.256213 1.526903 -1.386980 -3.993952 -8.493231 0.813504 0.000000 0.000000 0.000000 -5.969557 4.580064 -2.629902 11.255321 0.027612 0.080739 -1.984797 -0.580072 3.370286 0.000000 0.000000 -0.000000 4.233561 -14.085166 -0.897023 0.000000 0.000000 0.000000 5.919387 4.805980 -79.119375 2.144038 -12.162859 0.993651 -12.199786 -3.041359 9.443701 -3.785202 8.458464 12.351799 7.455426 11.608365 -1.288621 1.129265 8.847037 5.185766 -0.000001 -0.000000 -0.000002 2.384620 3.620114 -6.815637 0.018940 0.237212 -17.103731 -0.000002 0.000000 0.000000 -1.935799 5.644691 -11.386947 0.101772 0.660610 -24.767601 0.000000 -0.000000 0.000000 -4.873191 10.020073 -7.875419 -0.044691 0.326928 -30.086089 -0.000001 -0.000001 -0.000002 -6.437507 11.282620 -19.770975 0.059309 0.243040 -30.857589 0.000000 -0.000000 0.000000 3.456614 7.912192 4.381423 0.000000 0.000000 0.000000 4.870320 0.880824 78.811811 0.216083 17.510295 -0.089622 -4.831391 -4.161986 -10.247052 -0.464248 -8.992502 -6.084802 7.446392 -11.613884 1.293119 1.120004 -8.851357 -5.181752 0.000001 0.000000 0.000002 2.362523 -3.634249 8.333185 0.012281 -0.255084 18.622494 -0.000000 0.000000 0.000000 -1.983658 -5.671255 13.530153 0.138085 -0.655757 26.914207 0.000000 -0.000000 -0.000002 -4.977982 -10.100801 10.695747 -0.008989 -0.341854 32.924015 -0.000001 0.000000 -0.000002 -6.474090 -11.323135 23.226024 0.083650 -0.233785 34.318023 0.000001 0.000001 0.000002 -0.490407 21.409453 1.235946 13.323890 4.442605 1.237252 -8.017535 -1.268396 -0.780193 -0.077377 -0.000321 -0.084732 -0.000000 -0.000000 -0.000000 -4.636015 -8.872515 -11.314450 6.080958 -13.789979 -0.213526 6.218376 -0.130571 8.765379 -0.002832 0.000039 0.000574 0.000000 0.000000 0.000000 
0.002137 101.424263 0.321731 -5.458833 -11.889376 -1.321738 12.279844 1.538888 -1.481535 -4.009649 -8.492095 0.838627 0.000000 0.000000 0.000000 -5.990857 4.581317 -2.607015 11.197290 -0.037176 0.154592 -1.933322 -0.649541 3.461111 0.000000 -0.000002 0.000000 4.134859 -13.909759 -1.027312 0.000000 0.000000 0.000000 5.833299 4.715157 -78.638311 2.464684 -12.082308 0.839264 -11.971006 -2.884900 9.022993 -3.764272 8.410115 12.319260 7.372635 11.506804 -1.247456 1.230927 9.019810 5.174660 -0.000002 0.000000 -0.000001 2.321427 3.520242 -6.821847 0.019648 0.237893 -17.855250 -0.000001 -0.000000 0.000000 -1.898743 5.569505 -11.597239 0.101645 0.651977 -24.994616 0.000000 -0.000000 -0.000000 -4.774475 9.989810 -8.066119 -0.044684 0.327387 -30.156088 0.000001 -0.000000 -0.000003 -6.325151 11.199823 -19.848006 0.058974 0.242582 -30.742555 0.000000 0.000000 0.000001 3.381227 7.803408 4.537100 0.000000 0.000000 0.000000 5.024063 1.620401 78.436117 0.420643 17.682390 -0.003087 -5.282815 -3.964284 -10.374945 -0.507299 -9.279075 -6.121823 7.209208 -11.240097 1.219509 1.088821 -8.566737 -5.010561 0.000000 0.000001 0.000000 2.356832 -3.533950 8.694497 0.011843 -0.249328 18.450684 -0.000000 -0.000000 0.000000 -1.904668 -5.449618 13.745676 0.133092 -0.634498 26.482342 0.000001 -0.000000 -0.000001 -4.780968 -9.668431 11.141317 -0.009691 -0.329676 32.368840 -0.000000 0.000001 0.000001 -6.359786 -10.736983 23.396446 0.076962 -0.231840 33.790688 0.000001 -0.000000 0.000002 -0.882230 21.408594 1.420231 13.749377 4.235942 1.222683 -8.097613 -1.250888 -0.769905 -0.077472 -0.000314 -0.084538 -0.000000 -0.000000 -0.000000 -4.917251 -8.817486 -11.323956 6.543367 -13.782348 -0.216237 6.027713 -0.128534 8.805611 -0.002834 0.000022 0.000581 -0.000000 -0.000002 -0.000000 
-0.050470 101.367981 0.232505 -5.401262 -11.698269 -1.336450 12.257648 1.543548 -1.559112 -4.018684 -8.493298 0.862145 0.000000 0.000000 0.000000 -6.005033 4.580153 -2.583796 11.160979 -0.091042 0.230802 -1.910302 -0.714434 3.577409 0.000000 0.000001 -0.000000 4.037701 -13.737900 -1.155442 0.000000 0.000000 0.000000 5.705732 4.632387 -78.161502 2.775907 -11.939533 0.681372 -11.739157 -2.759554 8.593604 -3.751107 8.349386 12.295331 7.298340 11.419270 -1.207313 1.342453 9.223522 5.172552 0.000000 0.000001 0.000003 2.257671 3.427917 -6.819784 0.023238 0.238448 -18.684488 -0.000001 0.000000 0.000000 -1.862104 5.502068 -11.816813 0.101814 0.643605 -25.268194 -0.000000 0.000000 0.000001 -4.681527 9.963956 -8.246966 -0.044632 0.328110 -30.263349 -0.000001 -0.000000 -0.000000 -6.218971 11.123546 -19.917508 0.058690 0.242165 -30.644081 -0.000001 -0.000000 -0.000001 3.306759 7.693736 4.690965 0.000000 0.000000 0.000000 5.157378 2.358697 78.058933 0.618388 17.828501 0.086500 -5.725243 -3.745777 -10.502803 -0.553298 -9.581181 -6.161870 6.959098 -10.845805 1.144365 1.055501 -8.266169 -4.830225 0.000000 -0.000001 0.000000 2.350870 -3.428244 9.075710 0.011338 -0.243173 18.269306 -0.000000 0.000000 -0.000000 -1.823162 -5.215156 13.972263 0.127791 -0.612066 26.026646 0.000001 -0.000000 0.000001 -4.580362 -9.209584 11.607392 -0.010356 -0.316794 31.782755 0.000000 -0.000001 0.000000 -6.242233 -10.117657 23.571454 0.069917 -0.225114 33.234338 0.000000 0.000001 0.000000 -1.350568 21.435002 1.641610 14.205998 3.949835 1.202918 -8.179224 -1.200915 -0.740041 -0.077583 -0.000307 -0.084322 0.000000 0.000000 -0.000000 -5.205603 -8.767526 -11.299476 6.959005 -13.821665 -0.237086 5.860214 -0.102543 8.848019 -0.002810 0.000015 0.000570 -0.000000 -0.000002 -0.000000 
-0.077797 101.300995 0.110662 -5.270775 -11.465989 -1.386496 12.155757 1.528185 -1.579063 -4.021896 -8.515543 0.871766 0.000000 0.000000 0.000000 -6.003062 4.558937 -2.572199 11.158115 -0.114069 0.288822 -1.943715 -0.770573 3.768099 0.000000 -0.000001 0.000000 3.942082 -13.570001 -1.281384 0.000000 0.000000 0.000000 5.619345 4.574189 -77.694713 3.051957 -11.904680 0.522620 -11.509799 -2.582421 8.194521 -3.744034 8.279134 12.277952 7.230596 11.342601 -1.167949 1.461494 9.451081 5.177028 -0.000000 -0.000000 -0.000001 2.193389 3.341375 -6.811398 0.027122 0.239054 -19.573125 -0.000001 -0.000001 0.000000 -1.826024 5.440489 -12.043526 0.101622 0.635396 -25.577283 0.000001 0.000000 -0.000001 -4.593009 9.941415 -8.420090 -0.044570 0.329000 -30.399461 -0.000001 0.000000 -0.000000 -6.117679 11.052289 -19.980926 0.058444 0.241809 -30.558461 0.000001 -0.000000 -0.000003 3.233185 7.582014 4.843430 0.000000 0.000000 0.000000 5.215429 3.086637 77.680568 0.821296 17.890996 0.180002 -6.140631 -3.482971 -10.626924 -0.602025 -9.897169 -6.204852 6.697316 -10.433163 1.068095 1.020220 -7.951276 -4.641830 -0.000000 -0.000000 -0.000001 2.344624 -3.317797 9.474903 0.008472 -0.236763 18.079526 -0.000000 -0.000000 -0.000000 -1.739755 -4.969230 14.208432 0.122235 -0.588449 25.549631 0.000000 0.000000 0.000001 -4.378358 -8.726578 12.090922 -0.011007 -0.303305 31.169500 0.000000 -0.000000 -0.000000 -6.122425 -9.468420 23.749514 0.062742 -0.217967 32.652078 0.000001 -0.000001 0.000003 -2.031489 21.482651 1.945637 14.795791 3.564793 1.176899 -8.282485 -1.122787 -0.667861 -0.077670 -0.000345 -0.084090 -0.000000 -0.000001 -0.000000 -5.552279 -8.715653 -11.226194 7.335151 -13.932665 -0.271538 5.736271 -0.053616 8.895614 -0.002821 0.000039 0.000579 -0.000000 0.000000 0.000000 
-0.093501 101.230530 -0.023954 -5.115081 -11.221127 -1.449323 12.026618 1.505437 -1.577098 -4.022316 -8.545087 0.875560 0.000000 0.000000 0.000000 -5.995741 4.530749 -2.565628 11.168336 -0.150682 0.337645 -2.005923 -0.852417 3.997329 0.000000 -0.000002 0.000000 3.847713 -13.403311 -1.405392 0.000000 0.000000 0.000000 5.532357 4.526082 -77.236995 3.314034 -11.916836 0.364356 -11.280410 -2.382527 7.805441 -3.741375 8.202133 12.265792 7.167522 11.273413 -1.129242 1.585743 9.695404 5.185952 -0.000000 0.000002 0.000000 2.128883 3.258851 -6.798536 0.031115 0.239677 -20.503681 0.000001 0.000000 0.000001 -1.790226 5.382973 -12.275190 0.101233 0.627285 -25.911542 -0.000000 0.000000 -0.000001 -4.507506 9.921108 -8.587978 -0.043607 0.330008 -30.555507 0.000000 -0.000000 -0.000003 -6.019646 10.984440 -20.040212 0.058225 0.241496 -30.481806 -0.000000 0.000000 -0.000002 3.160101 7.466488 4.995547 0.000000 0.000000 0.000000 5.215059 3.771392 77.294997 1.040015 17.904625 0.279791 -6.510697 -3.215573 -10.744617 -0.653337 -10.225394 -6.250763 6.425211 -10.004303 0.991559 0.983028 -7.623597 -4.446378 0.000001 -0.000003 -0.000002 2.338195 -3.203148 9.889822 0.005122 -0.228733 17.882310 0.000000 -0.000000 -0.000000 -1.655205 -4.712928 14.452940 0.116471 -0.563826 25.053813 0.000000 -0.000001 0.000000 -4.176952 -8.221547 12.589124 -0.011648 -0.289360 30.531905 0.000001 -0.000000 -0.000002 -6.001268 -8.792427 23.928984 0.055363 -0.210453 32.046797 0.000001 0.000000 0.000000 -2.780949 21.554322 2.275254 15.420212 3.107275 1.146548 -8.387394 -1.015996 -0.568001 -0.078411 -0.000330 -0.082518 0.000000 0.000001 -0.000000 -5.914025 -8.665137 -11.138173 7.686540 -14.077401 -0.312914 5.633023 0.013624 8.947778 -0.002825 0.000015 0.000566 0.000000 0.000002 0.000000 
